<?xml version="1.0" encoding="UTF-8"?>
<svg width="60px" height="62px" viewBox="0 0 60 62" version="1.1" xmlns="http://www.w3.org/2000/svg" xmlns:xlink="http://www.w3.org/1999/xlink">
    <title>4F916EDE-AFF4-4BC2-8F46-4F209E0EC119</title>
    <defs>
        <path d="M37.6566265,28.5 C37.6566265,29.7636145 36.6310843,30.7891566 35.3674699,30.7891566 L30.7891566,30.7891566 L30.7891566,35.3674699 C30.7891566,36.6310843 29.7636145,37.6566265 28.5,37.6566265 C27.2363855,37.6566265 26.2108434,36.6310843 26.2108434,35.3674699 L26.2108434,30.7891566 L21.6325301,30.7891566 C20.3689157,30.7891566 19.3433735,29.7636145 19.3433735,28.5 C19.3433735,27.2363855 20.3689157,26.2108434 21.6325301,26.2108434 L26.2108434,26.2108434 L26.2108434,21.6325301 C26.2108434,20.3689157 27.2363855,19.3433735 28.5,19.3433735 C29.7636145,19.3433735 30.7891566,20.3689157 30.7891566,21.6325301 L30.7891566,26.2108434 L35.3674699,26.2108434 C36.6310843,26.2108434 37.6566265,27.2363855 37.6566265,28.5 M28.5,46.813253 C18.4025301,46.813253 10.186747,38.5974699 10.186747,28.5 C10.186747,18.4025301 18.4025301,10.186747 28.5,10.186747 C38.5974699,10.186747 46.813253,18.4025301 46.813253,28.5 C46.813253,38.5974699 38.5974699,46.813253 28.5,46.813253 M28.5,5.60843373 C15.856988,5.60843373 5.60843373,15.856988 5.60843373,28.5 C5.60843373,41.143012 15.856988,51.3915663 28.5,51.3915663 C41.143012,51.3915663 51.3915663,41.143012 51.3915663,28.5 C51.3915663,15.856988 41.143012,5.60843373 28.5,5.60843373" id="path-1"></path>
    </defs>
    <g id="Styleguide" stroke="none" stroke-width="1" fill="none" fill-rule="evenodd">
        <g id="STYLEGUIDE:-Basics" transform="translate(-140.000000, -4766.000000)">
            <g id="ICONS" transform="translate(0.000000, 2817.951807)">
                <g id="ICONS-WHITE" transform="translate(0.000000, 1774.096386)">
                    <g id="Group" transform="translate(70.963855, 175.473413)">
                        <g id="ic-add" transform="translate(70.963855, 0.791648)">
                            <rect id="Rectangle" x="0" y="0" width="57" height="57"></rect>
                            <mask id="mask-2" fill="white">
                                <use xlink:href="#path-1"></use>
                            </mask>
                            <use id="Icon/20px/plus_circle-[#1427]" fill="#FFFFFF" xlink:href="#path-1"></use>
                        </g>
                    </g>
                </g>
            </g>
        </g>
    </g>
</svg>