<?xml version="1.0" encoding="UTF-8"?>
<svg width="64px" height="65px" viewBox="0 0 64 65" version="1.1" xmlns="http://www.w3.org/2000/svg" xmlns:xlink="http://www.w3.org/1999/xlink">
    <title>1B928ECC-4AD0-4917-8AEC-FB58D428C1F5</title>
    <g id="Styleguide" stroke="none" stroke-width="1" fill="none" fill-rule="evenodd">
        <g id="STYLEGUIDE:-Basics" transform="translate(-369.000000, -3491.000000)">
            <g id="ICONS" transform="translate(0.000000, 2817.951807)">
                <g id="ICONS-LANDING" transform="translate(70.963855, 535.662651)">
                    <g id="Group" transform="translate(231.204819, 141.195739)">
                        <g id="ic-alert" transform="translate(70.963855, 0.731972)">
                            <rect id="Rectangle" x="0" y="0" width="57" height="57"></rect>
                            <path d="M28.5,4.75 C29.8116763,4.75 30.875,5.81332372 30.875,7.125 C30.875,7.14726611 30.8746936,7.16946065 30.8740848,7.19157965 C38.8654843,7.92279318 45.125,14.6435969 45.125,22.8263889 L45.125,31.9941958 C45.125,36.1644554 46.8431665,40.1504905 49.875,43.0138889 L50.4390432,43.5465964 C51.3581815,44.4146714 51.3995764,45.863494 50.5315014,46.7826322 C50.0990572,47.2405142 49.4970671,47.5 48.8672544,47.5 L33.25,47.5 C33.25,50.1233526 31.1233526,52.25 28.5,52.25 C25.8766474,52.25 23.75,50.1233526 23.75,47.5 L23.75,47.5 L8.13274557,47.5 C6.86847927,47.5 5.84358894,46.4751097 5.84358894,45.2108434 C5.84358894,44.5810307 6.10307469,43.9790406 6.56095676,43.5465964 L7.125,43.0138889 C10.1568335,40.1504905 11.875,36.1644554 11.875,31.9941958 L11.875,22.8263889 C11.875,14.6433852 18.1348396,7.92244543 26.1270907,7.1909977 L26.125,7.125 C26.125,5.81332372 27.1883237,4.75 28.5,4.75 Z" id="Icon-Color" fill="#666666"></path>
                        </g>
                    </g>
                </g>
            </g>
        </g>
    </g>
</svg>