<?xml version="1.0" encoding="UTF-8"?>
<svg width="60px" height="61px" viewBox="0 0 60 61" version="1.1" xmlns="http://www.w3.org/2000/svg" xmlns:xlink="http://www.w3.org/1999/xlink">
    <title>75AE26FC-D3ED-42E5-A048-2B11304FC719</title>
    <defs>
        <path d="M15.4518072,25.753012 L36.0542169,25.753012 L36.0542169,5.15060241 L15.4518072,5.15060241 L15.4518072,25.753012 Z M25.753012,36.0542169 L5.15060241,36.0542169 L5.15060241,15.4518072 L10.3012048,15.4518072 L10.3012048,28.3283133 C10.3012048,29.7498795 11.4523645,30.9036145 12.876506,30.9036145 L25.753012,30.9036145 L25.753012,36.0542169 Z M38.6295181,0 L12.876506,0 C11.4523645,0 10.3012048,1.15373494 10.3012048,2.5753012 L10.3012048,10.3012048 L2.5753012,10.3012048 C1.15115964,10.3012048 0,11.4549398 0,12.876506 L0,38.6295181 C0,40.0510843 1.15115964,41.2048193 2.5753012,41.2048193 L28.3283133,41.2048193 C29.7524548,41.2048193 30.9036145,40.0510843 30.9036145,38.6295181 L30.9036145,30.9036145 L38.6295181,30.9036145 C40.0536596,30.9036145 41.2048193,29.7498795 41.2048193,28.3283133 L41.2048193,2.5753012 C41.2048193,1.15373494 40.0536596,0 38.6295181,0 L38.6295181,0 Z" id="path-1"></path>
    </defs>
    <g id="Styleguide" stroke="none" stroke-width="1" fill="none" fill-rule="evenodd">
        <g id="STYLEGUIDE:-Basics" transform="translate(-2216.000000, -3493.000000)">
            <g id="ICONS" transform="translate(0.000000, 2817.951807)">
                <g id="ICONS-LANDING" transform="translate(70.963855, 535.662651)">
                    <g id="Group" transform="translate(2076.265060, 141.195739)">
                        <g id="ic-filter-darkgray" transform="translate(70.963855, 0.731972)">
                            <g id="Icon" transform="translate(6.867470, 7.912500)">
                                <mask id="mask-2" fill="white">
                                    <use xlink:href="#path-1"></use>
                                </mask>
                                <use fill="#666666" xlink:href="#path-1"></use>
                            </g>
                        </g>
                    </g>
                </g>
            </g>
        </g>
    </g>
</svg>