<?xml version="1.0" encoding="UTF-8"?>
<svg width="79px" height="79px" viewBox="0 0 79 79" version="1.1" xmlns="http://www.w3.org/2000/svg" xmlns:xlink="http://www.w3.org/1999/xlink">
    <title>B6EBE997-F34A-445F-AC74-6DA1B4801EB5@3x</title>
    <defs>
        <path d="M66.5,12.6666667 L57,12.6666667 L57,9.5 C57,7.74883333 55.5845,6.33333333 53.8333333,6.33333333 C52.0821667,6.33333333 50.6666667,7.74883333 50.6666667,9.5 L50.6666667,12.6666667 L25.3333333,12.6666667 L25.3333333,9.5 C25.3333333,7.74883333 23.9178333,6.33333333 22.1666667,6.33333333 C20.4155,6.33333333 19,7.74883333 19,9.5 L19,12.6666667 L9.5,12.6666667 C7.74883333,12.6666667 6.33333333,14.0821667 6.33333333,15.8333333 L6.33333333,66.5 C6.33333333,68.2511667 7.74883333,69.6666667 9.5,69.6666667 L66.5,69.6666667 C68.2511667,69.6666667 69.6666667,68.2511667 69.6666667,66.5 L69.6666667,15.8333333 C69.6666667,14.0821667 68.2511667,12.6666667 66.5,12.6666667 L66.5,12.6666667 Z M12.6666667,63.3333333 L63.3333333,63.3333333 L63.3333333,31.6666667 L12.6666667,31.6666667 L12.6666667,63.3333333 Z M12.6666667,25.3333333 L63.3333333,25.3333333 L63.3333333,19 L12.6666667,19 L12.6666667,25.3333333 Z M25.3333333,38 C23.5821667,38 22.1666667,39.4155 22.1666667,41.1666667 C22.1666667,42.9178333 23.5821667,44.3333333 25.3333333,44.3333333 C27.0845,44.3333333 28.5,42.9178333 28.5,41.1666667 C28.5,39.4155 27.0845,38 25.3333333,38 M25.3333333,50.6666667 C23.5821667,50.6666667 22.1666667,52.0821667 22.1666667,53.8333333 C22.1666667,55.5845 23.5821667,57 25.3333333,57 C27.0845,57 28.5,55.5845 28.5,53.8333333 C28.5,52.0821667 27.0845,50.6666667 25.3333333,50.6666667 M38,50.6666667 C36.2488333,50.6666667 34.8333333,52.0821667 34.8333333,53.8333333 C34.8333333,55.5845 36.2488333,57 38,57 C39.7511667,57 41.1666667,55.5845 41.1666667,53.8333333 C41.1666667,52.0821667 39.7511667,50.6666667 38,50.6666667 M38,38 C36.2488333,38 34.8333333,39.4155 34.8333333,41.1666667 C34.8333333,42.9178333 36.2488333,44.3333333 38,44.3333333 C39.7511667,44.3333333 41.1666667,42.9178333 41.1666667,41.1666667 C41.1666667,39.4155 39.7511667,38 38,38 M50.6666667,38 C48.9155,38 47.5,39.4155 47.5,41.1666667 C47.5,42.9178333 48.9155,44.3333333 50.6666667,44.3333333 C52.4178333,44.3333333 53.8333333,42.9178333 53.8333333,41.1666667 C53.8333333,39.4155 52.4178333,38 50.6666667,38" id="calendar"></path>
    </defs>
    <g id="Styleguide" stroke="none" stroke-width="1" fill="none" fill-rule="evenodd">
        <g id="STYLEGUIDE:-Navigation" transform="translate(-207.000000, -2109.000000)">
            <g id="CONTENT" transform="translate(68.674699, 380.000000)">
                <g id="NAVIGATION---VERTICAL" transform="translate(2.289157, 828.674699)">
                    <g id="DEFAULT-STATE" transform="translate(4.578313, 178.554217)">
                        <g id="Navs" transform="translate(0.000000, 132.000000)">
                            <g id="Nav-Item-/-2-Side-Icon-with-Label-/-2-Not-Selected" transform="translate(0.000000, 556.000000)">
                                <g id="ic-graph-bar" transform="translate(133.000000, 35.625000)">
                                    <rect id="Rectangle" x="0" y="0" width="76" height="76"></rect>
                                    <mask id="mask-2" fill="white">
                                        <use xlink:href="#calendar"></use>
                                    </mask>
                                    <use id="Icon" fill="#555555" xlink:href="#calendar"></use>
                                </g>
                            </g>
                        </g>
                    </g>
                </g>
            </g>
        </g>
    </g>
</svg>