<?xml version="1.0" encoding="UTF-8"?>
<svg width="79px" height="79px" viewBox="0 0 79 79" version="1.1" xmlns="http://www.w3.org/2000/svg" xmlns:xlink="http://www.w3.org/1999/xlink">
    <defs>
        <path d="M38,6.33333333 C20.539,6.33333333 6.33333333,20.539 6.33333333,38 C6.33333333,55.461 20.539,69.6666667 38,69.6666667 C55.461,69.6666667 69.6666667,55.461 69.6666667,38 C69.6666667,20.539 55.461,6.33333333 38,6.33333333 M38,63.3333333 C24.0318333,63.3333333 12.6666667,51.9681667 12.6666667,38 C12.6666667,24.0318333 24.0318333,12.6666667 38,12.6666667 C51.9681667,12.6666667 63.3333333,24.0318333 63.3333333,38 C63.3333333,51.9681667 51.9681667,63.3333333 38,63.3333333 M41.1666667,36.6886833 L41.1666667,22.16635 C41.1666667,20.4151833 39.748,18.9996833 38,18.9996833 C36.252,18.9996833 34.8333333,20.4151833 34.8333333,22.16635 L34.8333333,37.9996833 C34.8333333,38.8420167 35.1658333,39.64635 35.7611667,40.2385167 L45.2611667,49.7385167 C45.8786667,50.3560167 46.6893333,50.66635 47.5,50.66635 C48.3106667,50.66635 49.1213333,50.3560167 49.7388333,49.7385167 C50.977,48.50035 50.977,46.4990167 49.7388333,45.26085 L41.1666667,36.6886833 Z" id="clock"></path>
    </defs>
    <g id="Styleguide" stroke="none" stroke-width="1" fill="none" fill-rule="evenodd">
        <g id="STYLEGUIDE:-Navigation" transform="translate(-207.000000, -2292.000000)">
            <g id="CONTENT" transform="translate(68.674699, 380.000000)">
                <g id="NAVIGATION---VERTICAL" transform="translate(2.289157, 828.674699)">
                    <g id="DEFAULT-STATE" transform="translate(4.578313, 178.554217)">
                        <g id="Navs" transform="translate(0.000000, 132.000000)">
                            <g id="Nav-Item-/-2-Side-Icon-with-Label-/-2-Not-Selected" transform="translate(0.000000, 741.000000)">
                                <g id="ic-clock" transform="translate(133.000000, 33.250000)">
                                    <rect id="Rectangle" x="0" y="0" width="76" height="76"></rect>
                                    <mask id="mask-2" fill="white">
                                        <use xlink:href="#clock"></use>
                                    </mask>
                                    <use id="Icon" fill="#555555" xlink:href="#clock"></use>
                                </g>
                            </g>
                        </g>
                    </g>
                </g>
            </g>
        </g>
    </g>
</svg>