<?xml version="1.0" encoding="UTF-8"?>
<svg width="60px" height="62px" viewBox="0 0 60 62" version="1.1" xmlns="http://www.w3.org/2000/svg" xmlns:xlink="http://www.w3.org/1999/xlink">
    <title>1CB9EB8A-6181-4BE8-B4C1-CCCD08AF9E04</title>
    <g id="Styleguide" stroke="none" stroke-width="1" fill="none" fill-rule="evenodd">
        <g id="STYLEGUIDE:-Basics" transform="translate(-1523.000000, -4766.000000)">
            <g id="ICONS" transform="translate(0.000000, 2817.951807)">
                <g id="ICONS-WHITE" transform="translate(0.000000, 1774.096386)">
                    <g id="Group" transform="translate(1453.614458, 175.473413)">
                        <g id="ic-graph-bar" transform="translate(70.963855, 0.791648)">
                            <rect id="Rectangle" x="0" y="0" width="57" height="57"></rect>
                            <path d="M45.125,7.125 C47.7483526,7.125 49.875,9.25164744 49.875,11.875 L49.875,11.875 L49.875,45.125 C49.875,47.7483526 47.7483526,49.875 45.125,49.875 L45.125,49.875 L11.875,49.875 C9.25164744,49.875 7.125,47.7483526 7.125,45.125 L7.125,45.125 L7.125,11.875 C7.125,9.25164744 9.25164744,7.125 11.875,7.125 L11.875,7.125 Z M45.125,11.875 L11.875,11.875 L11.875,45.125 L45.125,45.125 L45.125,11.875 Z M30.875,26.125 L30.875,40.375 L26.125,40.375 L26.125,26.125 L30.875,26.125 Z M40.375,16.625 L40.375,40.375 L35.625,40.375 L35.625,16.625 L40.375,16.625 Z M21.375,33.25 L21.375,40.375 L16.625,40.375 L16.625,33.25 L21.375,33.25 Z" id="Combined-Shape" fill="#FFFFFF"></path>
                        </g>
                    </g>
                </g>
            </g>
        </g>
    </g>
</svg>