<?xml version="1.0" encoding="UTF-8"?>
<svg width="60px" height="62px" viewBox="0 0 60 62" version="1.1" xmlns="http://www.w3.org/2000/svg" xmlns:xlink="http://www.w3.org/1999/xlink">
    <title>98EC1B78-5FB7-4607-89F8-2CB296C747D8</title>
    <defs>
        <filter id="filter-1">
            <feColorMatrix in="SourceGraphic" type="matrix" values="0 0 0 0 0.043137 0 0 0 0 0.376471 0 0 0 0 0.639216 0 0 0 1.000000 0"></feColorMatrix>
        </filter>
    </defs>
    <g id="Styleguide" stroke="none" stroke-width="1" fill="none" fill-rule="evenodd">
        <g id="STYLEGUIDE:-Basics" transform="translate(-3366.000000, -4312.000000)">
            <g id="ICONS" transform="translate(0.000000, 2817.951807)">
                <g id="ICONS-BLUE" transform="translate(0.000000, 1165.180723)">
                    <g id="Group" transform="translate(3297.349398, 330.310603)">
                        <g id="ic-maximize-white" transform="translate(69.963855, 0.617108)" filter="url(#filter-1)">
                            <g transform="translate(0.686747, 0.939759)">
                                <g id="Icon" transform="translate(28.612500, 27.050000) scale(1, -1) translate(-28.612500, -27.050000) translate(4.750000, 4.225000)" fill="#000000">
                                    <path d="M34.7550476,23.4738255 L25.8488255,32.3800476 C24.6880479,33.5408253 22.8118037,33.5408253 21.6510261,32.3800476 L12.7448039,23.4738255 C11.5840263,22.3130479 11.5840263,20.4368037 12.7448039,19.2760261 C13.9055815,18.1152485 15.7818257,18.1152485 16.9426033,19.2760261 L20.7811851,23.1146078 L20.7811851,2.96874072 C20.7811851,1.32999584 22.1082122,-4.68141081e-12 23.7499258,-4.68141081e-12 C25.3916394,-4.68141081e-12 26.7186665,1.32999584 26.7186665,2.96874072 L26.7186665,23.1146078 L30.5572483,19.2760261 C31.1361527,18.6971217 31.8961503,18.4061851 32.656148,18.4061851 C33.4161456,18.4061851 34.1761432,18.6971217 34.7550476,19.2760261 C35.9158253,20.4368037 35.9158253,22.3130479 34.7550476,23.4738255 Z M47.5,45.1244062 L0,45.1244062 L0,23.6732358 C0,22.4036273 1.03067926,21.3744062 2.29151919,21.3744062 L2.45848081,21.3744062 C3.72405191,21.3744062 4.75,22.3959288 4.75,23.6662502 L4.75,40.3744062 L42.75,40.3744062 L42.75,23.6662502 C42.75,22.4004997 43.7806793,21.3744062 45.0415192,21.3744062 L45.2084808,21.3744062 C46.4740519,21.3744062 47.5,22.3949141 47.5,23.6732358 L47.5,45.1244062 Z" id="arrow_in_down-[#384]" transform="translate(23.750000, 22.562203) scale(1, -1) translate(-23.750000, -22.562203) "></path>
                                </g>
                            </g>
                        </g>
                    </g>
                </g>
            </g>
        </g>
    </g>
</svg>