<?xml version="1.0" encoding="UTF-8"?>
<svg width="60px" height="61px" viewBox="0 0 60 61" version="1.1" xmlns="http://www.w3.org/2000/svg" xmlns:xlink="http://www.w3.org/1999/xlink">
    <title>58A4FC40-7901-45F2-B556-DCA888490AC8</title>
    <defs>
        <path d="M40.3755938,46.5173438 L37.7963438,43.9380938 L39.6797188,42.0547188 C40.6083438,41.1260938 40.6083438,39.6250938 39.6797188,38.6964688 C38.7510938,37.7678438 37.2500938,37.7678438 36.3214688,38.6964688 L34.4380938,40.5798438 L31.8588438,38.0005938 L38.0005938,31.8588438 L46.5173438,40.3755938 L40.3755938,46.5173438 Z M12.9134688,40.0240938 L16.9770938,44.0877188 L10.8804688,46.1207188 L12.9134688,40.0240938 Z M16.4213438,22.5630938 L18.3047188,20.6797188 C19.2333438,19.7510938 19.2333438,18.2500938 18.3047188,17.3214688 C17.3760938,16.3928438 15.8750938,16.3928438 14.9464688,17.3214688 L13.0630938,19.2048438 L10.4838438,16.6255938 L16.6255938,10.4838438 L25.1423438,19.0005938 L19.0005938,25.1423438 L16.4213438,22.5630938 Z M46.2299688,10.7712188 C47.9233438,12.4645938 47.9233438,15.2195938 46.2299688,16.9129688 L45.1255938,18.0173438 L38.9838438,11.8755938 L40.0882188,10.7712188 C41.7815938,9.07784375 44.5365938,9.07784375 46.2299688,10.7712188 L46.2299688,10.7712188 Z M15.2338438,35.6255938 L35.6255938,15.2338438 L41.7673438,21.3755938 L21.3755938,41.7673438 L15.2338438,35.6255938 Z M41.3588438,28.5005938 L49.5882188,20.2712188 C53.1340938,16.7277188 53.1340938,10.9564688 49.5882188,7.41296875 C46.0447188,3.86946875 40.2734688,3.86946875 36.7299688,7.41296875 L28.5005938,15.6423438 L18.3047188,5.44646875 C17.3760938,4.51784375 15.8750938,4.51784375 14.9464688,5.44646875 L5.44646875,14.9464688 C4.51784375,15.8750938 4.51784375,17.3760938 5.44646875,18.3047188 L15.6423438,28.5005938 L10.1964688,33.9464688 C9.93759375,34.2053438 9.74046875,34.5235938 9.62409375,34.8750938 L4.87409375,49.1250938 C4.58909375,49.9777188 4.80996875,50.9205938 5.44646875,51.5547188 C5.89771875,52.0083438 6.50571875,52.2505938 7.12559375,52.2505938 C7.37496875,52.2505938 7.63146875,52.2102188 7.87609375,52.1270938 L22.1260938,47.3770938 C22.4775938,47.2607188 22.7958438,47.0635938 23.0547188,46.8047188 L28.5005938,41.3588438 L38.6964688,51.5547188 C39.1595938,52.0178438 39.7675938,52.2505938 40.3755938,52.2505938 C40.9835938,52.2505938 41.5915938,52.0178438 42.0547188,51.5547188 L51.5547188,42.0547188 C52.4833438,41.1260938 52.4833438,39.6250938 51.5547188,38.6964688 L41.3588438,28.5005938 Z" id="path-1"></path>
    </defs>
    <g id="Styleguide" stroke="none" stroke-width="1" fill="none" fill-rule="evenodd">
        <g id="STYLEGUIDE:-Basics" transform="translate(-3614.000000, -5655.000000)">
            <g id="ICONS" transform="translate(0.000000, 2817.951807)">
                <g id="ICONS-LANDING" transform="translate(70.963855, 535.662651)">
                    <g id="Group" transform="translate(3456.000000, 2303.000000)">
                        <g id="ic-settings" transform="translate(88.963855, 0.617108)">
                            <rect id="Rectangle" x="0" y="0" width="57" height="57"></rect>
                            <mask id="mask-2" fill="white">
                                <use xlink:href="#path-1"></use>
                            </mask>
                            <use id="Icon" fill="#000000" xlink:href="#path-1"></use>
                        </g>
                    </g>
                </g>
            </g>
        </g>
    </g>
</svg>