<?xml version="1.0" encoding="UTF-8"?>
<svg width="63px" height="61px" viewBox="0 0 63 61" version="1.1" xmlns="http://www.w3.org/2000/svg" xmlns:xlink="http://www.w3.org/1999/xlink">
    <title>39C86CB1-3B6E-4E54-8CEF-9A847EEB92D7</title>
    <g id="Styleguide" stroke="none" stroke-width="1" fill="none" fill-rule="evenodd">
        <g id="STYLEGUIDE:-Basics" transform="translate(-3138.000000, -3494.000000)">
            <g id="ICONS" transform="translate(0.000000, 2817.951807)">
                <g id="ICONS-LANDING" transform="translate(70.963855, 535.662651)">
                    <g id="Group" transform="translate(2998.795181, 142.484896)">
                        <g id="ic-expand" transform="translate(70.963855, 0.000000)">
                            <rect id="Rectangle" x="0" y="0" width="59.5909091" height="57"></rect>
                            <path d="M36.2158447,38 L39.7272727,34.6412428 L47.1761364,41.764375 L47.1761364,36.6805556 L52.1420455,36.6805556 L52.1420455,49.875 L38.3478535,49.875 L38.3478535,45.125 L43.6627557,45.125 L36.2158447,38 Z M19.8636364,34.6412428 L23.3750644,38 L15.9256705,45.125 L21.2430556,45.125 L21.2430556,49.875 L7.44886364,49.875 L7.44886364,36.6805556 L12.4147727,36.6805556 L12.4147727,41.762 L19.8636364,34.6412428 Z M52.1420455,7.125 L52.1420455,20.3194444 L47.1761364,20.3194444 L47.1761364,15.23325 L39.7272727,22.3587572 L36.2158447,19 L43.6602727,11.875 L38.3478535,11.875 L38.3478535,7.125 L52.1420455,7.125 Z M21.2430556,7.125 L21.2430556,11.875 L15.9281534,11.875 L23.3750644,19 L19.8636364,22.3587572 L12.4147727,15.235625 L12.4147727,20.3194444 L7.44886364,20.3194444 L7.44886364,7.125 L21.2430556,7.125 Z" id="Icon-Color" fill="#666666"></path>
                        </g>
                    </g>
                </g>
            </g>
        </g>
    </g>
</svg>