<?xml version="1.0" encoding="UTF-8"?>
<svg width="60px" height="62px" viewBox="0 0 60 62" version="1.1" xmlns="http://www.w3.org/2000/svg" xmlns:xlink="http://www.w3.org/1999/xlink">
    <title>4DB1F6F0-B6CA-4253-BD4C-A656A570F502</title>
    <g id="Styleguide" stroke="none" stroke-width="1" fill="none" fill-rule="evenodd">
        <g id="STYLEGUIDE:-Basics" transform="translate(-140.000000, -4986.000000)">
            <g id="ICONS" transform="translate(0.000000, 2817.951807)">
                <g id="ICONS-WHITE" transform="translate(0.000000, 1774.096386)">
                    <g id="Group" transform="translate(70.963855, 395.970392)">
                        <g id="ic-overview" transform="translate(70.963855, 0.053705)">
                            <rect id="Rectangle" x="0" y="0" width="57" height="57"></rect>
                            <path d="M21.375,30.875 C23.9983526,30.875 26.125,33.0016474 26.125,35.625 L26.125,35.625 L26.125,45.125 C26.125,47.7483526 23.9983526,49.875 21.375,49.875 L21.375,49.875 L11.875,49.875 C9.25164744,49.875 7.125,47.7483526 7.125,45.125 L7.125,45.125 L7.125,35.625 C7.125,33.0016474 9.25164744,30.875 11.875,30.875 L11.875,30.875 Z M45.125,30.875 C47.7483526,30.875 49.875,33.0016474 49.875,35.625 L49.875,35.625 L49.875,45.125 C49.875,47.7483526 47.7483526,49.875 45.125,49.875 L45.125,49.875 L35.625,49.875 C33.0016474,49.875 30.875,47.7483526 30.875,45.125 L30.875,45.125 L30.875,35.625 C30.875,33.0016474 33.0016474,30.875 35.625,30.875 L35.625,30.875 Z M21.375,35.625 L11.875,35.625 L11.875,45.125 L21.375,45.125 L21.375,35.625 Z M45.125,35.625 L35.625,35.625 L35.625,45.125 L45.125,45.125 L45.125,35.625 Z M21.375,7.125 C23.9983526,7.125 26.125,9.25164744 26.125,11.875 L26.125,11.875 L26.125,21.375 C26.125,23.9983526 23.9983526,26.125 21.375,26.125 L21.375,26.125 L11.875,26.125 C9.25164744,26.125 7.125,23.9983526 7.125,21.375 L7.125,21.375 L7.125,11.875 C7.125,9.25164744 9.25164744,7.125 11.875,7.125 L11.875,7.125 Z M45.125,7.125 C47.7483526,7.125 49.875,9.25164744 49.875,11.875 L49.875,11.875 L49.875,21.375 C49.875,23.9983526 47.7483526,26.125 45.125,26.125 L45.125,26.125 L35.625,26.125 C33.0016474,26.125 30.875,23.9983526 30.875,21.375 L30.875,21.375 L30.875,11.875 C30.875,9.25164744 33.0016474,7.125 35.625,7.125 L35.625,7.125 Z M21.375,11.875 L11.875,11.875 L11.875,21.375 L21.375,21.375 L21.375,11.875 Z M45.125,11.875 L35.625,11.875 L35.625,21.375 L45.125,21.375 L45.125,11.875 Z" id="Combined-Shape" fill="#FFFFFF"></path>
                        </g>
                    </g>
                </g>
            </g>
        </g>
    </g>
</svg>