<?xml version="1.0" encoding="UTF-8"?>
<svg width="79px" height="79px" viewBox="0 0 79 79" version="1.1" xmlns="http://www.w3.org/2000/svg" xmlns:xlink="http://www.w3.org/1999/xlink">
    <title>2E214EBB-94CB-49D4-AF94-8D130A065575</title>
    <defs>
        <path d="M66.5007917,6.33333333 L38.0007917,6.33333333 C37.161625,6.33333333 36.354125,6.669 35.7619583,7.26116667 L7.26195833,35.7611667 C6.02379167,36.9993333 6.02379167,39.0006667 7.26195833,40.2388333 L35.7619583,68.7388333 C36.3794583,69.3563333 37.190125,69.6666667 38.0007917,69.6666667 C38.8114583,69.6666667 39.622125,69.3563333 40.239625,68.7388333 L68.739625,40.2388333 C69.3349583,39.6466667 69.6674583,38.8391667 69.6674583,38 L69.6674583,9.5 C69.6674583,7.752 68.2487917,6.33333333 66.5007917,6.33333333 L66.5007917,6.33333333 Z M19.0007917,32.9776667 L43.023125,57 L38.0007917,62.0223333 L13.9784583,38 L19.0007917,32.9776667 Z M63.334125,12.6666667 L63.334125,36.689 L47.5007917,52.5223333 L23.4784583,28.5 L39.3117917,12.6666667 L63.334125,12.6666667 Z M53.834125,25.33365 C55.582125,25.33365 57.0007917,23.9149833 57.0007917,22.1669833 C57.0007917,20.4189833 55.582125,19.0003167 53.834125,19.0003167 C52.086125,19.0003167 50.6674583,20.4189833 50.6674583,22.1669833 C50.6674583,23.9149833 52.086125,25.33365 53.834125,25.33365" id="path-1"></path>
    </defs>
    <g id="Styleguide" stroke="none" stroke-width="1" fill="none" fill-rule="evenodd">
        <g id="STYLEGUIDE:-Navigation" transform="translate(-207.000000, -2480.000000)">
            <g id="CONTENT" transform="translate(68.674699, 380.000000)">
                <g id="NAVIGATION---VERTICAL" transform="translate(2.289157, 828.674699)">
                    <g id="DEFAULT-STATE" transform="translate(4.578313, 178.554217)">
                        <g id="Navs" transform="translate(0.000000, 132.000000)">
                            <g id="Nav-Item-/-2-Side-Icon-with-Label-/-2-Not-Selected" transform="translate(0.000000, 927.000000)">
                                <g id="ic-report" transform="translate(133.000000, 35.625000)">
                                    <rect id="Rectangle" x="0" y="0" width="76" height="76"></rect>
                                    <mask id="mask-2" fill="white">
                                        <use xlink:href="#path-1"></use>
                                    </mask>
                                    <use id="Icon" fill="#555555" xlink:href="#path-1"></use>
                                </g>
                            </g>
                        </g>
                    </g>
                </g>
            </g>
        </g>
    </g>
</svg>