<?xml version="1.0" encoding="UTF-8"?>
<svg width="60px" height="62px" viewBox="0 0 60 62" version="1.1" xmlns="http://www.w3.org/2000/svg" xmlns:xlink="http://www.w3.org/1999/xlink">
    <title>D7F8427C-36DF-42B0-9400-9794374C3B18</title>
    <g id="Styleguide" stroke="none" stroke-width="1" fill="none" fill-rule="evenodd">
        <g id="STYLEGUIDE:-Basics" transform="translate(-369.000000, -4318.000000)">
            <g id="ICONS" transform="translate(0.000000, 2817.951807)">
                <g id="ICONS-BLUE" transform="translate(0.000000, 1165.180723)">
                    <g id="Group" transform="translate(299.879518, 336.431933)">
                        <g id="ic-refresh" transform="translate(70.963855, 0.074091)">
                            <rect id="Rectangle" x="0" y="0" width="57" height="57"></rect>
                            <path d="M45.9733076,20.731193 L53.250236,28.0081214 L49.8914788,31.3668786 L48.3455,29.822875 L48.328536,30.5793505 C48.2252652,32.9499422 47.7107968,35.2557327 46.8152955,37.415325 C45.7994309,39.8651857 44.307976,42.0893889 42.4351468,43.9622181 C40.5623176,45.8350473 38.3381144,47.3265022 35.8882537,48.3423668 C33.4587124,49.3498058 30.8441389,49.875 28.1604287,49.875 C25.4767184,49.875 22.862145,49.3498058 20.4326037,48.3423668 C18.2549497,47.439376 16.255593,46.1606103 14.5228283,44.5722403 L13.8857105,43.9622181 L17.2444678,40.6034609 C18.6782952,42.0372884 20.379988,43.1783702 22.25203,43.9546353 C24.1073032,44.7239469 26.1038648,45.125 28.1604287,45.125 C30.2169926,45.125 32.2135542,44.7239469 34.0688273,43.9546353 C35.9408694,43.1783702 37.6425621,42.0372884 39.0763896,40.6034609 C40.5102171,39.1696335 41.6512989,37.4679407 42.427564,35.5958986 C43.1007117,33.9725347 43.4919114,32.2409967 43.5791934,30.4557401 L43.5955,29.822875 L42.0555328,31.3657237 L38.6944672,28.0092763 L45.9733076,20.731193 Z M28.1604287,9.5 C30.8441389,9.5 33.4587124,10.0251942 35.8882537,11.0326332 C38.0659076,11.935624 40.0652643,13.2143897 41.798029,14.8027597 L42.4351468,15.4127819 L39.0763896,18.7715391 C37.6425621,17.3377116 35.9408694,16.1966298 34.0688273,15.4203647 C32.2135542,14.6510531 30.2169926,14.25 28.1604287,14.25 C19.8198784,14.25 13.0241961,20.864366 12.7326733,29.1338064 L12.72525,29.545 L14.267472,28.0071288 L17.6242428,31.3678712 L10.3482693,38.6445265 L3.07062139,31.3668786 L6.42937861,28.0081214 L7.97525,29.552125 L7.9818506,29.0814944 C8.30229023,18.2125758 17.2138939,9.5 28.1604287,9.5 Z" id="Icon-Color" fill="#0B60A3"></path>
                        </g>
                    </g>
                </g>
            </g>
        </g>
    </g>
</svg>