<?xml version="1.0" encoding="UTF-8"?>
<svg width="59px" height="61px" viewBox="0 0 59 61" version="1.1" xmlns="http://www.w3.org/2000/svg" xmlns:xlink="http://www.w3.org/1999/xlink">
    <title>A79F82C5-7DF1-44A6-8127-FD2D4894B096</title>
    <defs>
        <filter id="filter-1">
            <feColorMatrix in="SourceGraphic" type="matrix" values="0 0 0 0 0.043137 0 0 0 0 0.376471 0 0 0 0 0.639216 0 0 0 1.000000 0"></feColorMatrix>
        </filter>
        <path d="M19.3014426,13.3605976 L28.2478769,13.6114927 C30.6742755,13.6810959 32.6264014,15.6332218 32.6960045,18.0596204 L32.9468996,27.0060546 C32.9841292,28.2702423 31.9870235,29.3223831 30.7228358,29.3596127 L30.7228358,29.3596127 C29.4602669,29.3952236 28.4065074,28.3997365 28.3692778,27.1355489 L28.2818691,23.9953132 C28.2543516,22.9901141 27.0387243,22.5061293 26.3281246,23.216729 L17.6633403,31.8815133 C16.76983,32.7750236 15.3194943,32.7750236 14.425984,31.8815133 C13.5324736,30.9880029 13.5324736,29.5376673 14.425984,28.6441569 L23.0907682,19.9793727 C23.801368,19.268773 23.3173832,18.0531457 22.3138027,18.0272468 L19.1719484,17.9382195 C17.9093794,17.9026086 16.9138923,16.8488491 16.9478846,15.5846614 L16.9478846,15.5846614 C16.9851142,14.3204738 18.0388737,13.3249867 19.3014426,13.3605976 M38.9156627,41.2048193 L6.86746988,41.2048193 C5.60385542,41.2048193 4.57831325,40.1815663 4.57831325,38.9156627 L4.57831325,6.86746988 C4.57831325,5.60385542 5.60385542,4.57831325 6.86746988,4.57831325 L38.9156627,4.57831325 C40.1792771,4.57831325 41.2048193,5.60385542 41.2048193,6.86746988 L41.2048193,38.9156627 C41.2048193,40.1815663 40.1792771,41.2048193 38.9156627,41.2048193 M0,4.57831325 L0,41.2048193 C0,43.7343373 2.04879518,45.7831325 4.57831325,45.7831325 L41.2048193,45.7831325 C43.7320482,45.7831325 45.7831325,43.7343373 45.7831325,41.2048193 L45.7831325,4.57831325 C45.7831325,2.05108434 43.7320482,0 41.2048193,0 L4.57831325,0 C2.04879518,0 0,2.05108434 0,4.57831325" id="path-2"></path>
    </defs>
    <g id="Styleguide" stroke="none" stroke-width="1" fill="none" fill-rule="evenodd">
        <g id="STYLEGUIDE:-Basics" transform="translate(-1061.000000, -4318.000000)">
            <g id="ICONS" transform="translate(0.000000, 2817.951807)">
                <g id="ICONS-BLUE" transform="translate(0.000000, 1165.180723)">
                    <g id="ic-runmodel-white" transform="translate(991.204819, 336.431933)" filter="url(#filter-1)">
                        <g transform="translate(70.963855, 0.074091)">
                            <g id="Icon" transform="translate(6.867470, 7.987500)">
                                <mask id="mask-3" fill="white">
                                    <use xlink:href="#path-2"></use>
                                </mask>
                                <use id="Mask" fill="#FFFFFF" xlink:href="#path-2"></use>
                            </g>
                        </g>
                    </g>
                </g>
            </g>
        </g>
    </g>
</svg>