<?xml version="1.0" encoding="UTF-8"?>
<svg width="55px" height="55px" viewBox="0 0 55 55" version="1.1" xmlns="http://www.w3.org/2000/svg" xmlns:xlink="http://www.w3.org/1999/xlink">
    <title>502A953D-516E-40E7-A931-1A7A576C92BE</title>
    <g id="Styleguide" stroke="none" stroke-width="1" fill="none" fill-rule="evenodd">
        <g id="STYLEGUIDE:-Basics" transform="translate(-369.000000, -4986.000000)">
            <g id="ICONS" transform="translate(0.000000, 2817.951807)">
                <g id="ICONS-WHITE" transform="translate(0.000000, 1774.096386)">
                    <g id="Group" transform="translate(299.879518, 395.970392)">
                        <g id="ic-refresh" transform="translate(70.963855, 0.053705)">
                            <rect id="Rectangle" x="0" y="0" width="52.6506024" height="50.3614458"></rect>
                            <path d="M42.4653042,18.3167167 L49.186965,24.7461314 L46.0844985,27.713708 L44.6564859,26.3495281 L44.6408164,27.0179 C44.5454257,29.1123988 44.0702139,31.1496434 43.243044,33.0577169 C42.3046952,35.2222524 40.9270461,37.1874119 39.1971236,38.8421204 C37.467201,40.496829 35.4127161,41.8145803 33.1497926,42.7121313 C30.9056379,43.602238 28.4905701,44.0662651 26.011641,44.0662651 C23.5327118,44.0662651 21.117644,43.602238 18.8734893,42.7121313 C16.8620018,41.9143081 15.0152064,40.7844749 13.4146607,39.3810959 L12.8261583,38.8421204 L15.9286248,35.8745438 C17.2530438,37.1413793 18.8248885,38.1495641 20.554084,38.8354208 C22.2677901,39.5151339 24.1120036,39.8694779 26.011641,39.8694779 C27.9112783,39.8694779 29.7554918,39.5151339 31.4691979,38.8354208 C33.1983934,38.1495641 34.7702381,37.1413793 36.0946571,35.8745438 C37.419076,34.6077083 38.4730874,33.1042046 39.1901194,31.4501916 C39.8119024,30.0158941 40.1732515,28.4860212 40.2538734,26.908686 L40.2689357,26.3495281 L38.846476,27.7126876 L35.7418774,24.7471518 L42.4653042,18.3167167 Z M26.011641,8.3935743 C28.4905701,8.3935743 30.9056379,8.85760133 33.1497926,9.74770804 C35.1612801,10.5455312 37.0080755,11.6753644 38.6086212,13.0787435 L39.1971236,13.6177189 L36.0946571,16.5852956 C34.7702381,15.31846 33.1983934,14.3102753 31.4691979,13.6244186 C29.7554918,12.9447055 27.9112783,12.5903614 26.011641,12.5903614 C18.3075182,12.5903614 12.030382,18.4343796 11.7611039,25.7407125 L11.754247,26.1040161 L13.1787894,24.7452543 L16.279421,27.714585 L9.55864234,34.1437584 L2.83631695,27.713708 L5.93878345,24.7461314 L7.36669679,26.1103112 L7.37279373,25.694493 C7.66878214,16.0914324 15.9003839,8.3935743 26.011641,8.3935743 Z" id="Icon-Color" fill="#FFFFFF"></path>
                        </g>
                    </g>
                </g>
            </g>
        </g>
    </g>
</svg>