<?xml version="1.0" encoding="UTF-8"?>
<svg width="60px" height="62px" viewBox="0 0 60 62" version="1.1" xmlns="http://www.w3.org/2000/svg" xmlns:xlink="http://www.w3.org/1999/xlink">
    <title>5C678DC5-D582-4E99-AA06-96D22C0E8ACF</title>
    <g id="Styleguide" stroke="none" stroke-width="1" fill="none" fill-rule="evenodd">
        <g id="STYLEGUIDE:-Basics" transform="translate(-832.000000, -4986.000000)">
            <g id="ICONS" transform="translate(0.000000, 2817.951807)">
                <g id="ICONS-WHITE" transform="translate(0.000000, 1774.096386)">
                    <g id="Group" transform="translate(762.289157, 395.970392)">
                        <g id="Group-12" transform="translate(0.000000, 0.053705)">
                            <g id="ic-refresh" transform="translate(70.963855, 0.000000)">
                                <rect id="Rectangle" x="0" y="0" width="57" height="57"></rect>
                                <path d="M14.7650602,30.7891566 C14.7650602,37.6566265 20.9274699,44.5240964 28.5,44.5240964 C36.0725301,44.5240964 42.2349398,38.3616867 42.2349398,30.7891566 C42.2349398,23.2166265 36.0725301,17.0542169 28.5,17.0542169 L28.5,21.6325301 L17.0542169,14.7650602 L28.5,7.89759036 L28.5,12.4759036 C38.613494,12.4759036 46.813253,20.6756627 46.813253,30.7891566 C46.813253,40.9026506 38.613494,49.1024096 28.5,49.1024096 C18.386506,49.1024096 10.186747,42.2349398 10.186747,30.7891566 L14.7650602,30.7891566 Z" id="Icon-Color" fill="#FFFFFF"></path>
                            </g>
                        </g>
                    </g>
                </g>
            </g>
        </g>
    </g>
</svg>