<?xml version="1.0" encoding="UTF-8"?>
<svg width="52px" height="52px" viewBox="0 0 52 52" version="1.1" xmlns="http://www.w3.org/2000/svg" xmlns:xlink="http://www.w3.org/1999/xlink">
    <defs>
        <path d="M37.0843373,8.24096386 L37.0843373,0 L32.9638554,0 L32.9638554,8.24096386 L28.8433735,8.24096386 L28.8433735,12.3614458 L32.9638554,12.3614458 L32.9638554,41.2048193 L37.0843373,41.2048193 L37.0843373,12.3614458 L41.2048193,12.3614458 L41.2048193,8.24096386 L37.0843373,8.24096386 Z M22.6626506,0 L18.5421687,0 L18.5421687,18.5421687 L14.4216867,18.5421687 L14.4216867,22.6626506 L18.5421687,22.6626506 L18.5421687,41.2048193 L22.6626506,41.2048193 L22.6626506,22.6626506 L26.7831325,22.6626506 L26.7831325,18.5421687 L22.6626506,18.5421687 L22.6626506,0 Z M8.24096386,28.8433735 L12.3614458,28.8433735 L12.3614458,32.9638554 L8.24096386,32.9638554 L8.24096386,41.2048193 L4.12048193,41.2048193 L4.12048193,32.9638554 L0,32.9638554 L0,28.8433735 L4.12048193,28.8433735 L4.12048193,0 L8.24096386,0 L8.24096386,28.8433735 Z" id="path-1"></path>
        <path d="M21.1502467,13.98662 L30.4321723,14.2469237 C32.9495608,14.319137 34.9748914,16.3444676 35.0471047,18.8618561 L35.3074084,28.1437817 C35.3460341,29.4553764 34.3115369,30.5469725 32.9999422,30.5855982 L32.9999422,30.5855982 C31.6900269,30.6225445 30.5967514,29.5897267 30.5581257,28.278132 L30.4674392,25.0201375 C30.4388898,23.9772434 29.1776765,23.4751092 28.4404293,24.2123564 L19.4507156,33.20207 C18.5236986,34.129087 17.0189754,34.129087 16.0919584,33.20207 C15.1649414,32.275053 15.1649414,30.7703298 16.0919584,29.8433128 L25.081672,20.8535992 C25.8189193,20.1163519 25.3167851,18.8551386 24.2755703,18.8282686 L21.0158964,18.7359027 C19.7059811,18.6989564 18.6731633,17.6056809 18.7084302,16.2940862 L18.7084302,16.2940862 C18.7470559,14.9824916 19.8403314,13.9496737 21.1502467,13.98662 M41.5,42.875 L8.25,42.875 C6.939,42.875 5.875,41.813375 5.875,40.5 L5.875,7.25 C5.875,5.939 6.939,4.875 8.25,4.875 L41.5,4.875 C42.811,4.875 43.875,5.939 43.875,7.25 L43.875,40.5 C43.875,41.813375 42.811,42.875 41.5,42.875 M1.125,4.875 L1.125,42.875 C1.125,45.499375 3.250625,47.625 5.875,47.625 L43.875,47.625 C46.497,47.625 48.625,45.499375 48.625,42.875 L48.625,4.875 C48.625,2.253 46.497,0.125 43.875,0.125 L5.875,0.125 C3.250625,0.125 1.125,2.253 1.125,4.875" id="path-3"></path>
    </defs>
    <g id="Styleguide" stroke="none" stroke-width="1" fill="none" fill-rule="evenodd">
        <g id="STYLEGUIDE:-Basics" transform="translate(-1297.000000, -3717.000000)">
            <g id="ICONS" transform="translate(0.000000, 2817.951807)">
                <g id="ICONS-LANDING" transform="translate(70.963855, 535.662651)">
                    <g id="Group" transform="translate(1151.445783, 358.692718)">
                        <g id="ic-scenario-darkgray" transform="translate(76.963855, 7.704872)">
                            <g id="Icon/20px/cloud_up-[#1062]" transform="translate(0.867470, 0.912500)">
                                <mask id="mask-2" fill="white">
                                    <use xlink:href="#path-1"></use>
                                </mask>
                                <use id="Icon/20px/option_bar_settings-[#1399]" fill="#666666" xlink:href="#path-1"></use>
                            </g>
                            <mask id="mask-4" fill="white">
                                <use xlink:href="#path-3"></use>
                            </mask>
                            <use id="download-[#1453]" fill-opacity="0" fill="#FFFFFF" xlink:href="#path-3"></use>
                        </g>
                    </g>
                </g>
            </g>
        </g>
    </g>
</svg>