<?xml version="1.0" encoding="UTF-8"?>
<svg width="60px" height="62px" viewBox="0 0 60 62" version="1.1" xmlns="http://www.w3.org/2000/svg" xmlns:xlink="http://www.w3.org/1999/xlink">
    <title>94648041-D95C-4215-9421-0ADD240E3486</title>
    <defs>
        <filter id="filter-1">
            <feColorMatrix in="SourceGraphic" type="matrix" values="0 0 0 0 0.043137 0 0 0 0 0.376471 0 0 0 0 0.639216 0 0 0 1.000000 0"></feColorMatrix>
        </filter>
    </defs>
    <g id="Styleguide" stroke="none" stroke-width="1" fill="none" fill-rule="evenodd">
        <g id="STYLEGUIDE:-Basics" transform="translate(-1987.000000, -4318.000000)">
            <g id="ICONS" transform="translate(0.000000, 2817.951807)">
                <g id="ICONS-BLUE" transform="translate(0.000000, 1165.180723)">
                    <g id="ic-settings-white" transform="translate(1917.108434, 336.431933)" filter="url(#filter-1)">
                        <g transform="translate(70.963855, 0.074091)" id="ic-settings">
                            <rect id="Rectangle" x="0" y="0" width="57" height="57"></rect>
                            <path d="M33.0099868,3.28481709 L33.6260854,3.56333252 L33.6251198,8.2201477 C37.3836224,9.14809033 40.7435001,11.0732704 43.4014151,13.6953834 L47.1239146,11.5066835 C49.9127105,13.4593961 51.729719,16.4815986 52.1785859,19.8735385 L52.25,20.556649 L48.761287,22.6103961 C49.3144061,24.4783992 49.6111111,26.4548965 49.6111111,28.5 C49.6111111,30.5451035 49.3144061,32.5216008 48.761287,34.3896039 L52.25,36.443351 C51.9853135,39.8814792 50.3260618,42.9965202 47.6685991,45.0887214 L47.1239146,45.4933165 L43.4014151,43.3046166 C40.7435001,45.9267296 37.3836224,47.8519097 33.6251198,48.7798523 L33.6260854,53.4366675 C30.572603,54.9220831 27.0963428,55.0149216 23.9900132,53.7151829 L23.3739146,53.4366675 L23.3748802,48.7798523 C19.6151324,47.8516022 16.2542736,45.9254539 13.5959433,43.3020102 L9.87608543,45.4933165 C7.08728955,43.5406039 5.27028103,40.5184014 4.82141407,37.1264615 L4.75,36.443351 L8.23871297,34.3896039 C7.6855939,32.5216008 7.38888889,30.5451035 7.38888889,28.5 C7.38888889,26.4548965 7.6855939,24.4783992 8.23871297,22.6103961 L4.75,20.556649 C5.01468652,17.1185208 6.6739382,14.0034798 9.33140086,11.9112786 L9.87608543,11.5066835 L13.5959433,13.6979898 C16.2542736,11.0745461 19.6151324,9.14839776 23.3748802,8.2201477 L23.3739146,3.56333252 C26.427397,2.07791687 29.9036572,1.98507839 33.0099868,3.28481709 Z M28.5,19 C23.2532949,19 19,23.2532949 19,28.5 C19,33.7467051 23.2532949,38 28.5,38 C33.7467051,38 38,33.7467051 38,28.5 C38,23.2532949 33.7467051,19 28.5,19 Z" id="Icon-Color" fill="#FFFFFF"></path>
                        </g>
                    </g>
                </g>
            </g>
        </g>
    </g>
</svg>