<?xml version="1.0" encoding="UTF-8"?>
<svg width="60px" height="61px" viewBox="0 0 60 61" version="1.1" xmlns="http://www.w3.org/2000/svg" xmlns:xlink="http://www.w3.org/1999/xlink">
    <g id="Styleguide" stroke="none" stroke-width="1" fill="none" fill-rule="evenodd">
        <g id="STYLEGUIDE:-Basics" transform="translate(-1521.000000, -3710.000000)" fill="#666666">
            <g id="ICONS" transform="translate(0.000000, 2817.951807)">
                <g id="ICONS-LANDING" transform="translate(70.963855, 535.662651)">
                    <g id="Group" transform="translate(1381.481928, 358.385542)">
                        <g id="ic-scenario-darkgray" transform="translate(70.963855, 0.704872)">
                            <g id="Icon/20px/cloud_up-[#1062]" transform="translate(4.578313, 5.612500)">
                                <path d="M16.5254217,9.15662651 C16.5254217,7.89301205 17.6013253,6.86746988 18.9290361,6.86746988 C20.256747,6.86746988 21.3326506,7.89301205 21.3326506,9.15662651 C21.3326506,10.420241 20.256747,11.4457831 18.9290361,11.4457831 C17.6013253,11.4457831 16.5254217,10.420241 16.5254217,9.15662651 Z M38.4578313,34.3373494 C38.4578313,35.6009639 37.3819277,36.626506 36.0542169,36.626506 L12.0180723,36.626506 C10.6903614,36.626506 9.61445783,35.6009639 9.61445783,34.3373494 C9.61445783,33.0737349 10.6903614,32.0481928 12.0180723,32.0481928 L36.0542169,32.0481928 C37.3819277,32.0481928 38.4578313,33.0737349 38.4578313,34.3373494 L38.4578313,34.3373494 Z M38.4578313,25.1807229 C38.4578313,26.4443373 37.3819277,27.4698795 36.0542169,27.4698795 L12.0180723,27.4698795 C10.6903614,27.4698795 9.61445783,26.4443373 9.61445783,25.1807229 C9.61445783,23.9171084 10.6903614,22.8915663 12.0180723,22.8915663 L36.0542169,22.8915663 C37.3819277,22.8915663 38.4578313,23.9171084 38.4578313,25.1807229 L38.4578313,25.1807229 Z M43.2650602,38.9156627 C43.2650602,40.1792771 42.1891566,41.2048193 40.8614458,41.2048193 L7.21084337,41.2048193 C5.88313253,41.2048193 4.80722892,40.1792771 4.80722892,38.9156627 L4.80722892,16.1248193 C4.80722892,15.8203614 4.93542169,15.5296386 5.15746988,15.316747 L9.61445783,11.0726506 L9.61445783,13.7349398 C9.61445783,16.2644578 11.7662651,18.313253 14.4216867,18.313253 L33.6506024,18.313253 C36.3060241,18.313253 38.4578313,16.2644578 38.4578313,13.7349398 L38.4578313,4.57831325 L40.8614458,4.57831325 C42.1891566,4.57831325 43.2650602,5.60385542 43.2650602,6.86746988 L43.2650602,38.9156627 L43.2650602,38.9156627 Z M14.4216867,6.49433735 L16.0836145,4.91253012 C16.3131342,4.6974131 16.6160321,4.57789119 16.9306024,4.57831214 L33.6506024,4.57831214 L33.6506024,11.4457831 C33.6506024,12.7093976 32.5746988,13.7349398 31.246988,13.7349398 L16.8253012,13.7349398 C15.4975904,13.7349398 14.4216867,12.7093976 14.4216867,11.4457831 L14.4216867,6.49433735 L14.4216867,6.49433735 Z M43.2650602,0 L15.4518072,0 C14.8154217,0 14.206506,0.240361446 13.7578313,0.668433735 L0.714216867,13.0642169 C0.266416962,13.4845815 0.0114160125,14.0707525 0.00915662651,14.6849398 L0,41.2048193 C0,43.7320482 2.15180723,45.7831325 4.80493976,45.7831325 L43.2650602,45.7831325 C45.9204819,45.7831325 48.0722892,43.7343373 48.0722892,41.2048193 L48.0722892,4.57831325 C48.0722892,2.04879518 45.9204819,0 43.2650602,0 Z" id="save_item-[#1410]"></path>
                            </g>
                        </g>
                    </g>
                </g>
            </g>
        </g>
    </g>
</svg>