<?xml version="1.0" encoding="UTF-8"?>
<svg width="60px" height="62px" viewBox="0 0 60 62" version="1.1" xmlns="http://www.w3.org/2000/svg" xmlns:xlink="http://www.w3.org/1999/xlink">
    <title>7F19DEA0-0D6A-496B-AA41-EA8C3D51B7B9</title>
    <defs>
        <filter id="filter-1">
            <feColorMatrix in="SourceGraphic" type="matrix" values="0 0 0 0 0.043137 0 0 0 0 0.376471 0 0 0 0 0.639216 0 0 0 1.000000 0"></feColorMatrix>
        </filter>
    </defs>
    <g id="Styleguide" stroke="none" stroke-width="1" fill="none" fill-rule="evenodd">
        <g id="STYLEGUIDE:-Basics" transform="translate(-1755.000000, -4318.000000)">
            <g id="ICONS" transform="translate(0.000000, 2817.951807)">
                <g id="ICONS-BLUE" transform="translate(0.000000, 1165.180723)">
                    <g id="ic-search-white" transform="translate(1685.903614, 336.431933)" filter="url(#filter-1)">
                        <g transform="translate(70.963855, 0.074091)" id="ic-search">
                            <rect id="Rectangle" x="0" y="0" width="57" height="57"></rect>
                            <path d="M38.5026007,12.5085452 C45.130491,19.1364354 45.6384926,29.566737 40.0266055,36.7775069 L49.875,46.6257431 L46.6257431,49.875 L36.7756727,40.0280329 C29.5649683,45.6384064 19.1358735,45.129929 12.5085452,38.5026007 C5.33048494,31.3245405 5.33048494,19.6866054 12.5085452,12.5085452 C19.6866054,5.33048494 31.3245405,5.33048494 38.5026007,12.5085452 Z M35.2533438,15.7578021 C29.8697986,10.3742569 21.1413473,10.3742569 15.7578021,15.7578021 C10.3742569,21.1413473 10.3742569,29.8697986 15.7578021,35.2533438 C21.1413473,40.6368889 29.8697986,40.6368889 35.2533438,35.2533438 C40.6368889,29.8697986 40.6368889,21.1413473 35.2533438,15.7578021 Z" id="Icon-Color" fill="#FFFFFF"></path>
                        </g>
                    </g>
                </g>
            </g>
        </g>
    </g>
</svg>