<?xml version="1.0" encoding="UTF-8"?>
<svg width="60px" height="61px" viewBox="0 0 60 61" version="1.1" xmlns="http://www.w3.org/2000/svg" xmlns:xlink="http://www.w3.org/1999/xlink">
    <title>008F37B7-A103-4CB7-A77F-750996DC9D57</title>
    <g id="Styleguide" stroke="none" stroke-width="1" fill="none" fill-rule="evenodd">
        <g id="STYLEGUIDE:-Basics" transform="translate(-2444.000000, -3711.000000)">
            <g id="ICONS" transform="translate(0.000000, 2817.951807)">
                <g id="ICONS-LANDING" transform="translate(70.963855, 535.662651)">
                    <g id="Group" transform="translate(2304.000000, 359.000000)">
                        <g id="ic-more" transform="translate(70.963855, 0.704872)">
                            <rect id="Rectangle" x="0" y="0" width="57" height="57"></rect>
                            <path d="M21.375,42.75 L26.125,42.75 L26.125,23.75 L21.375,23.75 L21.375,42.75 Z M30.875,42.75 L35.625,42.75 L35.625,23.75 L30.875,23.75 L30.875,42.75 Z M16.625,47.5 L40.375,47.5 L40.375,19 L16.625,19 L16.625,47.5 Z M21.375,14.25 L35.625,14.25 L35.625,9.5 L21.375,9.5 L21.375,14.25 Z M40.375,14.25 L40.375,4.75 L16.625,4.75 L16.625,14.25 L4.75,14.25 L4.75,19 L11.875,19 L11.875,52.25 L45.125,52.25 L45.125,19 L52.25,19 L52.25,14.25 L40.375,14.25 Z" id="Icon-Color" fill="#666666"></path>
                        </g>
                    </g>
                </g>
            </g>
        </g>
    </g>
</svg>