<?xml version="1.0" encoding="UTF-8"?>
<svg width="61px" height="62px" viewBox="0 0 61 62" version="1.1" xmlns="http://www.w3.org/2000/svg" xmlns:xlink="http://www.w3.org/1999/xlink">
    <g id="Styleguide" stroke="none" stroke-width="1" fill="none" fill-rule="evenodd">
        <g id="STYLEGUIDE:-Basics" transform="translate(-2215.000000, -3710.000000)">
            <g id="ICONS" transform="translate(0.000000, 2817.951807)">
                <g id="ICONS-LANDING" transform="translate(70.963855, 535.662651)">
                    <g id="Group-7" transform="translate(2075.060241, 358.692718)">
                        <g id="ic-table" transform="translate(70.963855, 0.704872)">
                            <rect id="Rectangle" x="0" y="0" width="57" height="57"></rect>
                            <path d="M35.625,40.375 L35.625,45.125 L21.375,45.125 L21.375,40.375 L35.625,40.375 Z M49.875,40.375 L49.875,45.125 L40.375,45.125 L40.375,40.375 L49.875,40.375 Z M16.625,40.375 L16.625,45.125 L7.125,45.125 L7.125,40.375 L16.625,40.375 Z M35.625,30.875 L35.625,35.625 L21.375,35.625 L21.375,30.875 L35.625,30.875 Z M49.875,30.875 L49.875,35.625 L40.375,35.625 L40.375,30.875 L49.875,30.875 Z M16.625,30.875 L16.625,35.625 L7.125,35.625 L7.125,30.875 L16.625,30.875 Z M16.625,21.375 L16.625,26.125 L7.125,26.125 L7.125,21.375 L16.625,21.375 Z M35.625,21.375 L35.625,26.125 L21.375,26.125 L21.375,21.375 L35.625,21.375 Z M49.875,21.375 L49.875,26.125 L40.375,26.125 L40.375,21.375 L49.875,21.375 Z M49.875,11.875 L49.875,16.625 L7.125,16.625 L7.125,11.875 L49.875,11.875 Z" id="Combined-Shape" fill="#666666"></path>
                        </g>
                    </g>
                </g>
            </g>
        </g>
    </g>
</svg>